<svg width="359" height="116" viewBox="0 0 359 116" fill="none" xmlns="http://www.w3.org/2000/svg">
<path d="M124.393 7.98508H144.806V11.0491H124.393C120.632 11.0491 117.572 14.063 117.572 17.7801V31.5935C117.572 35.2604 120.632 38.2742 124.393 38.2742H144.806V41.3885H124.393C118.927 41.3885 114.513 36.9682 114.513 31.5935V17.7801C114.513 12.3551 118.927 7.98508 124.393 7.98508ZM144.806 26.2188H122.638V23.1045H144.806V26.2188Z" fill="#00F0FF"/>
<path d="M169.793 7.98508C175.26 7.98508 179.673 12.104 179.673 17.1271V32.1461C179.673 37.1691 175.26 41.2881 169.793 41.2881H149.631V7.98508H169.793ZM176.614 32.1461V17.1271C176.614 13.8118 173.554 11.0994 169.793 11.0994H152.69V38.1737H169.793C173.554 38.1737 176.614 35.4613 176.614 32.1461Z" fill="#00F0FF"/>
<path d="M230.194 8.08554H250.607V11.1998H230.194C226.433 11.1998 223.373 14.2137 223.373 17.8805V20.2414H220.264V17.8805C220.264 12.5058 224.727 8.08554 230.194 8.08554ZM223.373 31.694C223.373 35.4111 226.433 38.3747 230.194 38.3747H250.607V41.489H230.194C224.727 41.489 220.264 37.1189 220.264 31.694V30.2373H223.373V31.694ZM195.186 23.2552H250.607V26.3193H214.646V41.4387H194.384C188.917 41.4387 184.504 37.0687 184.504 31.6438V17.8805C184.504 12.4556 188.917 8.08554 194.384 8.08554H214.797V11.1998H194.384C190.622 11.1998 187.563 14.1635 187.563 17.8805V31.6438C187.563 35.3608 190.622 38.3244 194.384 38.3244H211.537V26.3193H195.186V23.2552Z" fill="#00F0FF"/>
<path d="M157.307 116C152.354 116 147.934 114.87 144.048 112.609C140.223 110.286 137.183 107.147 134.926 103.191C132.731 99.2355 131.634 94.7775 131.634 89.8172C131.634 84.7942 132.7 80.3048 134.832 76.3491C136.963 72.3934 139.878 69.2854 143.577 67.025C147.276 64.7019 151.539 63.5403 156.367 63.5403C160.191 63.5403 163.702 64.2937 166.899 65.8007C170.159 67.3076 173.012 69.568 175.457 72.5818C176.146 73.3353 176.397 74.1515 176.209 75.0306C176.021 75.8468 175.488 76.5689 174.61 77.1968C173.921 77.6991 173.137 77.8874 172.259 77.7618C171.444 77.5735 170.723 77.1026 170.096 76.3491C166.46 72.2051 161.884 70.1331 156.367 70.1331C152.856 70.1331 149.753 70.9807 147.057 72.676C144.424 74.3713 142.355 76.6944 140.85 79.6455C139.408 82.5966 138.687 85.9871 138.687 89.8172C138.687 93.5845 139.471 96.9437 141.038 99.8948C142.606 102.846 144.8 105.169 147.621 106.864C150.442 108.56 153.671 109.407 157.307 109.407C159.752 109.407 161.978 109.093 163.984 108.465C166.053 107.775 167.871 106.739 169.438 105.357C170.19 104.729 170.974 104.384 171.789 104.321C172.604 104.259 173.356 104.51 174.046 105.075C174.798 105.765 175.206 106.55 175.269 107.429C175.394 108.308 175.112 109.062 174.422 109.69C169.846 113.897 164.141 116 157.307 116Z" fill="#00F0FF"/>
<path d="M204.771 116C199.818 116 195.399 114.87 191.512 112.609C187.687 110.286 184.647 107.147 182.39 103.191C180.196 99.2355 179.098 94.7775 179.098 89.8172C179.098 84.7942 180.164 80.3048 182.296 76.3491C184.427 72.3934 187.343 69.2854 191.041 67.025C194.74 64.7019 199.003 63.5403 203.831 63.5403C207.655 63.5403 211.166 64.2937 214.363 65.8007C217.623 67.3076 220.476 69.568 222.921 72.5818C223.61 73.3353 223.861 74.1515 223.673 75.0306C223.485 75.8468 222.952 76.5689 222.074 77.1968C221.385 77.6991 220.601 77.8874 219.723 77.7618C218.908 77.5735 218.187 77.1026 217.561 76.3491C213.924 72.2051 209.348 70.1331 203.831 70.1331C200.32 70.1331 197.217 70.9807 194.521 72.676C191.888 74.3713 189.819 76.6944 188.314 79.6455C186.872 82.5966 186.151 85.9871 186.151 89.8172C186.151 93.5845 186.935 96.9437 188.502 99.8948C190.07 102.846 192.264 105.169 195.085 106.864C197.906 108.56 201.135 109.407 204.771 109.407C207.216 109.407 209.442 109.093 211.448 108.465C213.517 107.775 215.335 106.739 216.902 105.357C217.655 104.729 218.438 104.384 219.253 104.321C220.068 104.259 220.821 104.51 221.51 105.075C222.262 105.765 222.67 106.55 222.733 107.429C222.858 108.308 222.576 109.062 221.886 109.69C217.31 113.897 211.605 116 204.771 116Z" fill="#00F0FF"/>
<path d="M252.611 116C247.533 116 243.019 114.901 239.07 112.704C235.183 110.443 232.111 107.335 229.854 103.38C227.66 99.4239 226.563 94.9031 226.563 89.8172C226.563 84.6686 227.597 80.1478 229.666 76.2549C231.797 72.2993 234.713 69.1912 238.412 66.9308C242.11 64.6705 246.374 63.5403 251.201 63.5403C255.966 63.5403 260.103 64.6391 263.614 66.8367C267.188 68.9715 269.946 71.9539 271.89 75.784C273.833 79.6141 274.805 83.9779 274.805 88.8754C274.805 89.88 274.491 90.6963 273.864 91.3241C273.237 91.8892 272.422 92.1718 271.419 92.1718H231.453V86.1441H272.172L268.128 89.0638C268.191 85.422 267.532 82.157 266.153 79.2688C264.774 76.3805 262.799 74.1201 260.229 72.4876C257.721 70.8551 254.712 70.0389 251.201 70.0389C247.627 70.0389 244.493 70.8865 241.797 72.5818C239.101 74.2771 237.001 76.6317 235.496 79.6455C234.054 82.5966 233.333 85.9871 233.333 89.8172C233.333 93.6473 234.148 97.0379 235.778 99.989C237.471 102.94 239.759 105.263 242.643 106.958C245.527 108.654 248.85 109.501 252.611 109.501C254.868 109.501 257.125 109.125 259.382 108.371C261.702 107.555 263.551 106.55 264.931 105.357C265.62 104.792 266.404 104.51 267.282 104.51C268.159 104.447 268.912 104.667 269.539 105.169C270.354 105.922 270.761 106.739 270.761 107.618C270.824 108.497 270.479 109.25 269.727 109.878C267.658 111.636 265.025 113.112 261.827 114.305C258.63 115.435 255.558 116 252.611 116Z" fill="#00F0FF"/>
<path d="M296.552 116C292.853 116 289.186 115.372 285.549 114.116C281.913 112.861 278.967 110.977 276.71 108.465C276.02 107.712 275.738 106.864 275.863 105.922C275.989 104.981 276.459 104.164 277.274 103.474C278.152 102.846 279.061 102.595 280.001 102.72C280.942 102.846 281.725 103.254 282.352 103.945C283.857 105.703 285.832 107.053 288.277 107.994C290.784 108.936 293.543 109.407 296.552 109.407C301.191 109.407 304.545 108.622 306.614 107.053C308.683 105.42 309.749 103.474 309.812 101.213C309.812 98.9529 308.746 97.1007 306.614 95.6565C304.483 94.1496 300.972 92.988 296.082 92.1718C289.75 91.1672 285.111 89.4091 282.164 86.8976C279.217 84.386 277.744 81.4036 277.744 77.9502C277.744 74.748 278.591 72.0795 280.283 69.9447C281.976 67.8099 284.233 66.2088 287.054 65.1414C289.875 64.074 292.979 63.5403 296.364 63.5403C300.564 63.5403 304.169 64.2623 307.178 65.7065C310.25 67.1506 312.727 69.097 314.608 71.5458C315.235 72.362 315.485 73.2097 315.36 74.0887C315.235 74.9678 314.733 75.6898 313.855 76.2549C313.103 76.6944 312.225 76.8514 311.222 76.7258C310.282 76.5375 309.467 76.0666 308.777 75.3131C307.21 73.4922 305.392 72.1737 303.323 71.3574C301.254 70.4784 298.872 70.0389 296.176 70.0389C292.728 70.0389 289.969 70.7609 287.9 72.2051C285.832 73.5864 284.797 75.3445 284.797 77.4793C284.797 78.9234 285.173 80.1792 285.926 81.2466C286.741 82.314 288.089 83.2558 289.969 84.0721C291.913 84.8883 294.609 85.579 298.057 86.1441C302.759 86.8976 306.458 88.0278 309.153 89.5347C311.912 90.9788 313.855 92.7055 314.984 94.7147C316.175 96.6612 316.77 98.796 316.77 101.119C316.77 104.07 315.893 106.676 314.137 108.936C312.445 111.134 310.062 112.861 306.99 114.116C303.981 115.372 300.502 116 296.552 116Z" fill="#00F0FF"/>
<path d="M338.782 116C335.083 116 331.415 115.372 327.779 114.116C324.143 112.861 321.196 110.977 318.939 108.465C318.25 107.712 317.968 106.864 318.093 105.922C318.218 104.981 318.689 104.164 319.504 103.474C320.381 102.846 321.29 102.595 322.231 102.72C323.171 102.846 323.955 103.254 324.582 103.945C326.086 105.703 328.061 107.053 330.506 107.994C333.014 108.936 335.772 109.407 338.782 109.407C343.421 109.407 346.775 108.622 348.844 107.053C350.913 105.42 351.978 103.474 352.041 101.213C352.041 98.9529 350.975 97.1007 348.844 95.6565C346.712 94.1496 343.201 92.988 338.311 92.1718C331.979 91.1672 327.34 89.4091 324.394 86.8976C321.447 84.386 319.974 81.4036 319.974 77.9502C319.974 74.748 320.82 72.0795 322.513 69.9447C324.205 67.8099 326.462 66.2088 329.284 65.1414C332.105 64.074 335.208 63.5403 338.593 63.5403C342.794 63.5403 346.399 64.2623 349.408 65.7065C352.48 67.1506 354.956 69.097 356.837 71.5458C357.464 72.362 357.715 73.2097 357.589 74.0887C357.464 74.9678 356.962 75.6898 356.085 76.2549C355.332 76.6944 354.455 76.8514 353.452 76.7258C352.511 76.5375 351.696 76.0666 351.007 75.3131C349.439 73.4922 347.621 72.1737 345.552 71.3574C343.484 70.4784 341.101 70.0389 338.405 70.0389C334.957 70.0389 332.199 70.7609 330.13 72.2051C328.061 73.5864 327.027 75.3445 327.027 77.4793C327.027 78.9234 327.403 80.1792 328.155 81.2466C328.97 82.314 330.318 83.2558 332.199 84.0721C334.142 84.8883 336.838 85.579 340.286 86.1441C344.988 86.8976 348.687 88.0278 351.383 89.5347C354.141 90.9788 356.085 92.7055 357.213 94.7147C358.404 96.6612 359 98.796 359 101.119C359 104.07 358.122 106.676 356.367 108.936C354.674 111.134 352.292 112.861 349.22 114.116C346.211 115.372 342.731 116 338.782 116Z" fill="#00F0FF"/>
<path d="M126.086 115.99L88.9992 0L0 80.5624L88.982 50.4154L77.5734 106.219L126.086 115.99Z" fill="#00F0FF"/>
</svg>
